*******************************************************************************
        Demon Exorcism - The Devil Inside Maxwell Bastas (2013) DVDRip
*******************************************************************************

-------------------------------------------------------------------------------
                              General Information
-------------------------------------------------------------------------------
Type.................: Movie



Video Format.........: AVI
Video Bitrate........: 992
Resolution...........: 640 x 369
Color................: 8 bit
FPS..................: 23.976
Source...............: DVD 1.739:1
Original Format......: NTSC
Genre................: Horror
IMDb Rating..........: 3.6
Movie Information....: http://www.imdb.com/title/tt1649749/

-------------------------------------------------------------------------------
                               Post Information
-------------------------------------------------------------------------------
Posted by............: RadioResearch
Posted on............: 4/5/2013

-------------------------------------------------------------------------------
                                 Release Notes
-------------------------------------------------------------------------------
SEEDBOX SUPPORTED!!

The story is a harrowing-tormented-horror tale of good vs. evil. Maxwell is 
hooked with anger and it starts to consume his soul until he realizes he is 
grappling with demons. Beelzebub, the lord of the flies, plagues Max to commit 
suicide to end his chaos. Destiny drops max right into the hands of the Fishers, 
Emma and Lester. After Max finds sanctuary under Emma's roof, a string of wicked 
events brings down an avalanche of evil upon Max and everyone attempting to help 
him. Priests, rabbi's and his new found friends all fight and die attempting to 
aid Max which culminates into a battle against Satan himself. Testing all of 
their will's to believe in a higher path...or allow The Devil to conquer. 

Enjoy!

RadioResearch

General
Complete name                            : G:AVIavi10 29 2012 11 34Demon 
Exorcism - The Devil Inside Maxwell Bastas (2012) DVDRip10 29 2012 11 
34.Title2.avi
Format                                   : AVI
Format/Info                              : Audio Video Interleave
File size                                : 690 MiB
Duration                                 : 1h 37mn
Overall bit rate                         : 992 Kbps
Movie name                               : 10 29 2012 11 34.Title2.DVDRip
Writing application                      : Lavf53.32.100
Original source form/Name                : 10 29 2012 11 34

Video
ID                                       : 0
Format                                   : MPEG-4 Visual
Format profile                           : Advanced Simple@L5
Format settings, BVOP                    : 2
Format settings, QPel                    : No
Format settings, GMC                     : No warppoints
Format settings, Matrix                  : Default (H.263)
Muxing mode                              : Packed bitstream
Codec ID                                 : XVID
Codec ID/Hint                            : XviD
Duration                                 : 1h 37mn
Bit rate                                 : 853 Kbps
Width                                    : 640 pixels
Height                                   : 368 pixels
Display aspect ratio                     : 1.739
Frame rate                               : 23.976 fps
Color space                              : YUV
Chroma subsampling                       : 4:2:0
Bit depth                                : 8 bits
Scan type                                : Progressive
Compression mode                         : Lossy
Bits/(Pixel*Frame)                       : 0.151
Stream size                              : 594 MiB (86%)
Writing library                          : XviD 64

Audio
ID                                       : 1
Format                                   : AC-3
Format/Info                              : Audio Coding 3
Mode extension                           : CM (complete main)
Format settings, Endianness              : Big
Codec ID                                 : 2000
Duration                                 : 1h 37mn
Bit rate mode                            : Constant
Bit rate                                 : 128 Kbps
Channel(s)                               : 2 channels
Channel positions                        : Front: L R
Sampling rate                            : 48.0 KHz
Bit depth                                : 16 bits
Compression mode                         : Lossy
Stream size                              : 88.9 MiB (13%)
Alignment                                : Aligned on interleaves
Interleave, duration                     : 32 ms (0.77 video frame)




-------------------------------------------------------------------------------
Generated with Cool NFO Creator - http://fly.to/coolbeans
-------------------------------------------------------------------------------
